<mxfile host="app.diagrams.net" agent="Mozilla/5.0 (Macintosh; Intel Mac OS X 10_15_7) AppleWebKit/537.36 (KHTML, like Gecko) Chrome/141.0.0.0 Safari/537.36" version="28.2.6">
  <diagram id="C5RBs43oDa-KdzZeNtuy" name="Page-1">
    <mxGraphModel dx="705" dy="403" grid="1" gridSize="10" guides="1" tooltips="1" connect="1" arrows="1" fold="1" page="1" pageScale="1" pageWidth="827" pageHeight="1169" math="0" shadow="0">
      <root>
        <mxCell id="WIyWlLk6GJQsqaUBKTNV-0" />
        <mxCell id="WIyWlLk6GJQsqaUBKTNV-1" parent="WIyWlLk6GJQsqaUBKTNV-0" />
        <mxCell id="rQeRQsM_AcNqX124Q-Ns-5" value="" style="edgeStyle=orthogonalEdgeStyle;rounded=0;orthogonalLoop=1;jettySize=auto;html=1;" edge="1" parent="WIyWlLk6GJQsqaUBKTNV-1" source="rQeRQsM_AcNqX124Q-Ns-0" target="rQeRQsM_AcNqX124Q-Ns-1">
          <mxGeometry relative="1" as="geometry" />
        </mxCell>
        <mxCell id="rQeRQsM_AcNqX124Q-Ns-0" value="Dev Team extracts source texts" style="rounded=1;whiteSpace=wrap;html=1;fontSize=12;glass=0;strokeWidth=1;shadow=0;" vertex="1" parent="WIyWlLk6GJQsqaUBKTNV-1">
          <mxGeometry x="125" y="170" width="190" height="40" as="geometry" />
        </mxCell>
        <mxCell id="rQeRQsM_AcNqX124Q-Ns-3" value="" style="edgeStyle=orthogonalEdgeStyle;rounded=0;orthogonalLoop=1;jettySize=auto;html=1;" edge="1" parent="WIyWlLk6GJQsqaUBKTNV-1" source="rQeRQsM_AcNqX124Q-Ns-1" target="rQeRQsM_AcNqX124Q-Ns-2">
          <mxGeometry relative="1" as="geometry" />
        </mxCell>
        <mxCell id="rQeRQsM_AcNqX124Q-Ns-6" value="It&#39;s will take 3 or more&amp;nbsp;weeks to be done" style="edgeLabel;html=1;align=center;verticalAlign=middle;resizable=0;points=[];" vertex="1" connectable="0" parent="rQeRQsM_AcNqX124Q-Ns-3">
          <mxGeometry x="-0.281" y="-1" relative="1" as="geometry">
            <mxPoint x="111" y="8" as="offset" />
          </mxGeometry>
        </mxCell>
        <mxCell id="rQeRQsM_AcNqX124Q-Ns-1" value="3rd-Translation Team translate to other languages" style="rounded=1;whiteSpace=wrap;html=1;fontSize=12;glass=0;strokeWidth=1;shadow=0;" vertex="1" parent="WIyWlLk6GJQsqaUBKTNV-1">
          <mxGeometry x="75" y="260" width="290" height="40" as="geometry" />
        </mxCell>
        <mxCell id="rQeRQsM_AcNqX124Q-Ns-8" value="" style="edgeStyle=orthogonalEdgeStyle;rounded=0;orthogonalLoop=1;jettySize=auto;html=1;" edge="1" parent="WIyWlLk6GJQsqaUBKTNV-1" source="rQeRQsM_AcNqX124Q-Ns-2" target="rQeRQsM_AcNqX124Q-Ns-7">
          <mxGeometry relative="1" as="geometry" />
        </mxCell>
        <mxCell id="rQeRQsM_AcNqX124Q-Ns-2" value="Upload translated texts into crowdin" style="rounded=1;whiteSpace=wrap;html=1;fontSize=12;glass=0;strokeWidth=1;shadow=0;" vertex="1" parent="WIyWlLk6GJQsqaUBKTNV-1">
          <mxGeometry x="132.5" y="360" width="175" height="40" as="geometry" />
        </mxCell>
        <mxCell id="rQeRQsM_AcNqX124Q-Ns-7" value="Translate Applied&lt;br&gt;Re-enter XVI" style="rounded=1;whiteSpace=wrap;html=1;fontSize=12;glass=0;strokeWidth=1;shadow=0;" vertex="1" parent="WIyWlLk6GJQsqaUBKTNV-1">
          <mxGeometry x="160" y="460" width="120" height="40" as="geometry" />
        </mxCell>
      </root>
    </mxGraphModel>
  </diagram>
</mxfile>
